<?xml version="1.0" standalone="no"?>
<!DOCTYPE svg PUBLIC "-//W3C//DTD SVG 20010904//EN"
 "http://www.w3.org/TR/2001/REC-SVG-20010904/DTD/svg10.dtd">
<svg version="1.0" xmlns="http://www.w3.org/2000/svg"
 width="300.000000pt" height="195.000000pt" viewBox="0 0 300.000000 195.000000"
 preserveAspectRatio="xMidYMid meet">
<metadata>
Created by potrace 1.10, written by Peter Selinger 2001-2011
</metadata>
<g transform="translate(0.000000,195.000000) scale(0.100000,-0.100000)"
fill="#000000" stroke="none">
<path d="M2140 1715 c0 -52 2 -57 30 -73 38 -22 38 -29 -3 -45 -34 -15 -97
-79 -97 -99 0 -7 17 4 38 24 67 64 106 74 117 31 12 -50 92 -207 119 -235 32
-33 51 -35 67 -7 16 30 4 95 -31 165 -42 85 -91 134 -135 134 -16 0 -27 17
-51 77 -39 96 -54 104 -54 28z m151 -154 c48 -40 99 -147 99 -208 l0 -46 -26
24 c-22 20 -134 232 -134 253 0 14 28 4 61 -23z"/>
<path d="M1330 1599 c-118 -48 -235 -145 -272 -227 -41 -90 25 -142 120 -93
73 38 110 94 135 204 17 74 44 111 90 122 15 4 30 11 33 16 10 17 -31 8 -106
-22z m-39 -119 c-27 -96 -47 -129 -105 -167 -52 -36 -100 -43 -110 -17 -16 41
-5 70 49 131 56 63 177 152 183 135 1 -5 -6 -42 -17 -82z"/>
<path d="M1837 1539 c-21 -12 -47 -61 -47 -88 0 -36 19 -32 39 8 27 53 40 59
62 30 20 -26 25 -19 9 12 -12 22 0 25 31 8 11 -6 25 -8 32 -6 13 5 -70 47 -93
46 -8 0 -23 -4 -33 -10z"/>
<path d="M2025 1527 c-7 -17 11 -67 25 -67 5 0 10 -13 10 -30 0 -19 5 -30 14
-30 7 0 26 -16 40 -35 39 -51 60 -46 90 21 14 31 26 59 26 61 0 11 -30 -20
-30 -31 -1 -6 -11 -24 -24 -39 l-23 -29 -22 30 c-17 25 -18 31 -6 36 25 9 17
24 -10 18 -41 -7 -29 16 22 41 30 16 42 27 34 31 -7 5 -30 -4 -52 -19 -23 -14
-42 -25 -43 -23 -1 2 -8 18 -16 36 -15 38 -28 49 -35 29z"/>
<path d="M1625 1488 c23 -67 16 -196 -11 -233 -18 -24 -44 -11 -59 29 -8 23
-6 30 9 38 15 8 16 12 5 19 -15 10 -69 12 -69 3 0 -11 52 -100 70 -118 38 -39
78 15 89 123 l6 66 30 -52 c17 -29 33 -53 38 -53 15 0 6 27 -23 73 -16 26 -39
65 -50 87 -22 43 -48 56 -35 18z"/>
<path d="M1977 1263 c-9 -9 19 -52 56 -85 48 -44 68 -33 21 11 -14 13 -32 37
-40 53 -15 28 -25 34 -37 21z"/>
<path d="M1436 1242 c-5 -8 57 -138 75 -156 19 -21 8 24 -22 88 -31 67 -44 83
-53 68z"/>
<path d="M1935 1207 c-17 -40 -91 -137 -105 -137 -6 0 -10 35 -10 80 0 100
-14 104 -59 20 -25 -46 -31 -70 -29 -102 3 -41 4 -43 36 -43 l32 0 -5 -130
c-4 -71 -8 -149 -10 -173 -3 -30 0 -42 8 -39 8 2 14 58 19 178 l7 174 31 26
c17 14 42 41 55 59 19 26 25 30 25 15 0 -31 16 -4 29 47 14 57 14 58 0 58 -5
0 -16 -15 -24 -33z m-131 -85 c-7 -74 -10 -82 -32 -82 -16 0 -19 6 -17 38 3
46 32 115 45 107 5 -3 7 -31 4 -63z"/>
<path d="M1332 1167 c-20 -23 -52 -101 -52 -126 0 -18 -3 -21 -13 -12 -11 8
-18 7 -30 -7 -20 -22 -61 -105 -77 -157 -13 -39 -13 -39 -23 -15 -25 66 -36
71 -71 33 l-26 -28 0 33 c0 44 -24 88 -52 96 -55 14 -206 -105 -311 -244 -88
-118 -178 -289 -211 -401 -36 -119 -7 -196 65 -180 19 4 50 16 69 26 47 24
163 119 205 167 l33 39 7 -30 c8 -38 18 -39 43 -3 62 87 120 245 141 382 12
76 42 140 66 140 14 0 35 -57 35 -97 0 -12 -13 -45 -30 -73 -46 -78 -63 -140
-58 -216 4 -58 8 -70 32 -90 73 -63 175 2 254 161 41 83 76 183 88 248 4 27
11 37 25 37 10 0 21 5 24 10 3 6 -4 10 -17 10 -23 0 -23 2 -23 104 0 57 -4
108 -8 112 -26 26 -86 -91 -66 -128 14 -25 26 -22 44 10 15 26 15 25 12 -38
l-4 -65 -66 -6 c-47 -4 -85 -15 -128 -37 -33 -17 -59 -26 -56 -19 38 95 91
207 98 207 9 0 15 -18 25 -72 10 -58 28 -47 20 12 -8 60 15 150 51 198 17 23
20 32 10 32 -8 0 -19 -6 -25 -13z m78 -117 c0 -6 -4 -18 -9 -28 -5 -9 -13 -26
-17 -37 -7 -18 -8 -17 -12 7 -3 29 13 68 28 68 6 0 10 -5 10 -10z m-402 -114
c29 -65 26 -88 -31 -202 -30 -60 -61 -126 -68 -146 -10 -31 -18 -38 -39 -38
-14 0 -31 -5 -38 -12 -17 -17 -15 -7 9 47 42 96 -21 81 -143 -34 -37 -35 -68
-67 -68 -72 0 -20 22 -6 67 42 26 28 68 65 92 82 l44 30 -7 -34 c-3 -19 -22
-58 -41 -86 -56 -84 -47 -97 18 -28 42 43 77 58 77 33 -1 -27 -40 -98 -76
-138 -52 -57 -169 -152 -221 -179 -44 -22 -88 -28 -97 -12 -15 24 -16 86 -2
136 28 93 114 266 136 272 11 3 20 10 20 15 0 5 -4 6 -10 3 -55 -34 114 184
209 270 84 75 149 95 169 51z m386 -123 c-4 -21 -19 -75 -35 -121 -57 -169
-151 -292 -224 -292 -30 0 -37 5 -55 40 -25 50 -25 91 0 174 18 58 40 95 40
67 0 -6 4 -11 9 -11 5 0 12 20 15 44 4 24 15 51 24 59 28 26 111 59 166 67 28
4 55 8 59 9 4 0 5 -16 1 -36z m-405 -175 c-23 -89 -102 -268 -117 -268 -5 0
-15 6 -21 14 -9 11 -9 16 2 23 8 4 24 37 36 73 35 102 115 277 119 258 2 -9
-7 -54 -19 -100z"/>
<path d="M1890 1082 c0 -6 4 -12 8 -14 5 -1 16 -39 25 -83 10 -43 20 -81 22
-84 16 -15 15 18 -2 96 -14 65 -24 89 -36 91 -9 2 -17 -1 -17 -6z"/>
</g>
</svg>
